<svg width="33" height="33" viewBox="0 0 33 33" fill="none" xmlns="http://www.w3.org/2000/svg">
<g clip-path="url(#clip0_361_205)">
<path d="M33.0772 31.0485C33.0772 32.1803 32.1571 33.1004 31.0252 33.1004H2.29802C1.16623 33.1004 0.246094 32.1803 0.246094 31.0485V2.32122C0.246094 1.18942 1.16623 0.269287 2.29802 0.269287H31.0252C32.1571 0.269287 33.0772 1.18942 33.0772 2.32122V31.0485Z" fill="#3688C8"/>
<path fill-rule="evenodd" clip-rule="evenodd" d="M5.82619 16.0516C6.27975 16.0516 6.7061 16.2519 7.01922 16.5658V16.5671C7.01922 16.4164 7.1206 16.3028 7.2615 16.3028L7.29714 16.3025C7.51738 16.3025 7.56249 16.5109 7.56249 16.577L7.56372 18.92C7.54812 19.0734 7.72189 19.1524 7.81831 19.0542C8.19458 18.6676 8.6446 17.0666 7.58447 16.139C6.59641 15.2741 5.2706 15.4167 4.56549 15.9027C3.81596 16.4196 3.33637 17.5636 3.80223 18.6381C4.31006 19.8104 5.76335 20.1598 6.62708 19.8113C7.06453 19.6348 7.26659 20.2261 6.81226 20.4192C6.1259 20.7118 4.21557 20.6823 3.32315 19.1364C2.72026 18.0926 2.75236 16.2559 4.35137 15.3042C5.57469 14.5764 7.1875 14.778 8.16004 15.7937C9.17659 16.8555 9.11742 18.8437 8.12581 19.617C7.67651 19.9681 7.00929 19.6262 7.01348 19.1144L7.00891 18.947C6.69605 19.2575 6.27981 19.4386 5.82619 19.4386C4.9301 19.4386 4.14158 18.6501 4.14158 17.7543C4.14164 16.8491 4.9301 16.0516 5.82619 16.0516ZM6.95399 17.6892C6.92022 17.0331 6.43321 16.6385 5.84501 16.6385H5.82284C5.14415 16.6385 4.76768 17.1723 4.76768 17.7786C4.76768 18.4575 5.2231 18.8864 5.82026 18.8864C6.486 18.8864 6.92383 18.3987 6.95547 17.8218L6.95399 17.6892Z" fill="#FAA830"/>
<path fill-rule="evenodd" clip-rule="evenodd" d="M23.3485 19.4656C23.3467 19.6106 23.195 19.7594 22.9749 19.7594C22.7528 19.7594 22.6145 19.5969 22.6145 19.4535L22.6148 19.2059C22.6173 19.0566 22.7553 18.9015 22.9806 18.9015C23.2269 18.9015 23.3493 19.0678 23.3493 19.2241L23.3485 19.4656Z" fill="#FAA830"/>
<path fill-rule="evenodd" clip-rule="evenodd" d="M25.7518 15.9601C24.7275 15.9643 23.8538 16.8673 23.8587 17.8609V19.4097C23.8587 19.6114 24.0238 19.7593 24.1978 19.7593C24.4048 19.7593 24.5655 19.6063 24.5655 19.4204V17.8479C24.5649 17.2849 25.057 16.6635 25.7473 16.6668C25.9721 16.6678 26.1197 16.4972 26.1187 16.3086C26.1179 16.1578 26.0095 15.959 25.7518 15.9601Z" fill="#FAA830"/>
<path fill-rule="evenodd" clip-rule="evenodd" d="M30.0066 15.9601C29.7888 15.9601 29.6485 16.1385 29.6485 16.3029L29.6486 17.8616C29.6486 18.4634 29.1421 19.0508 28.4375 19.0508C27.8616 19.0508 27.2515 18.551 27.2515 17.8729V16.3117C27.2515 16.1477 27.1287 15.9601 26.8848 15.9601C26.7125 15.9601 26.5366 16.1046 26.5366 16.3046V17.8608C26.5366 18.8682 27.4372 19.7557 28.4353 19.7557C29.5253 19.7557 30.3616 18.8211 30.3616 17.8655V16.3039C30.3615 16.1289 30.2172 15.9601 30.0066 15.9601Z" fill="#FAA830"/>
<path d="M19.6412 15.3991C19.6412 15.5519 19.4883 15.6776 19.2681 15.6776C19.0462 15.6776 18.908 15.5257 18.908 15.3825L18.908 15.1854C18.9107 15.0363 19.0411 14.8693 19.266 14.8693C19.5124 14.8693 19.6412 15.0289 19.6412 15.1854V15.3991Z" fill="white"/>
<path d="M13.0101 15.963C12.5599 15.9563 12.2148 16.2176 12.002 16.3917C11.7658 16.1384 11.4634 15.984 11.1527 15.9647C10.825 15.9446 10.5176 16.0548 10.3222 16.2136C10.2538 16.0548 10.1636 15.9614 10.0092 15.9614C9.83981 15.9614 9.65967 16.1061 9.65967 16.3423C9.65967 16.578 9.6616 19.4033 9.6616 19.4033C9.6616 19.5791 9.81184 19.7572 10.0261 19.7572C10.2624 19.7572 10.3931 19.5769 10.3931 19.4021V17.1313C10.3931 16.9104 10.7708 16.6491 11.0901 16.6532C11.2941 16.656 11.5365 16.8571 11.5365 17.1746L11.5385 19.4073C11.5385 19.6049 11.7371 19.7561 11.9173 19.7561C12.1314 19.7561 12.2939 19.5943 12.2939 19.4098V17.153C12.2939 16.8765 12.7139 16.6448 13.0015 16.6597C13.227 16.6715 13.4262 16.9171 13.4262 17.153V19.4064C13.4262 19.6017 13.6094 19.7561 13.807 19.7561C13.9804 19.7561 14.1812 19.6414 14.1812 19.4033V17.1595C14.1838 16.336 13.3704 15.9518 13.0101 15.963Z" fill="white"/>
<path d="M19.2711 15.9605C19.0514 15.9615 18.9094 16.1416 18.9092 16.3246L18.91 19.3999C18.9084 19.6038 19.07 19.756 19.2697 19.756C19.4976 19.756 19.6432 19.5779 19.6432 19.384L19.6448 16.3296C19.6448 16.1491 19.4623 15.9599 19.2711 15.9605Z" fill="white"/>
<path d="M17.9944 15.9614C17.788 15.961 17.642 16.1264 17.642 16.2875V16.413C17.3161 16.1355 16.8939 15.9634 16.4381 15.963C15.4352 15.9611 14.5471 16.8062 14.5471 17.863C14.5471 18.8318 15.3933 19.7573 16.4381 19.7573C16.8607 19.7573 17.3154 19.5948 17.6384 19.3192L17.6394 19.4092C17.6394 19.5812 17.7756 19.7573 17.9996 19.7573C18.2538 19.7573 18.3676 19.5542 18.3676 19.3938V16.307C18.3702 16.1623 18.2112 15.9616 17.9944 15.9614ZM16.4482 19.0547C15.7873 19.0547 15.2516 18.5192 15.2516 17.8587C15.2516 17.1978 15.7873 16.6625 16.4482 16.6625C17.1093 16.6625 17.6451 17.1978 17.6451 17.8587C17.6451 18.5192 17.1093 19.0547 16.4482 19.0547Z" fill="white"/>
<path d="M21.7892 19.0227C21.3235 19.0224 20.9083 18.6643 20.9083 18.136L20.909 15.2125C20.9083 15.0105 20.7436 14.8694 20.5422 14.8694C20.3081 14.87 20.1731 15.0424 20.1731 15.2125V18.139C20.1704 19.0474 20.9213 19.7594 21.7761 19.7594C22.0299 19.7594 22.1523 19.5533 22.1523 19.3788C22.1523 19.2124 22.021 19.0227 21.7892 19.0227Z" fill="white"/>
</g>
<defs>
<clipPath id="clip0_361_205">
<rect x="0.161621" y="0.184875" width="33" height="33" rx="16.5" fill="white"/>
</clipPath>
</defs>
</svg>
