<svg width="30" height="26" viewBox="0 0 30 26" fill="none" xmlns="http://www.w3.org/2000/svg">
<path d="M27.6758 5.97842C27.8637 5.34365 27.6758 4.87646 26.7719 4.87646H23.7809C23.0192 4.87646 22.6688 5.27764 22.4809 5.72451C22.4809 5.72451 20.9575 9.43662 18.8044 11.8437C18.1087 12.5394 17.7887 12.7628 17.4079 12.7628C17.22 12.7628 16.9305 12.5394 16.9305 11.9046V5.97842C16.9305 5.2167 16.7172 4.87646 16.0876 4.87646H11.3852C10.9079 4.87646 10.6235 5.23193 10.6235 5.56201C10.6235 6.28311 11.7001 6.45068 11.8118 8.48193V12.8897C11.8118 13.8546 11.6391 14.0323 11.2583 14.0323C10.2426 14.0323 7.77466 10.305 6.31216 6.03936C6.01763 5.21162 5.72818 4.87646 4.96138 4.87646H1.97036C1.11724 4.87646 0.94458 5.27764 0.94458 5.72451C0.94458 6.5167 1.96021 10.4522 5.67232 15.6522C8.14537 19.2019 11.629 21.1265 14.7977 21.1265C16.702 21.1265 16.9356 20.6999 16.9356 19.9636C16.9356 16.5714 16.7629 16.2515 17.7176 16.2515C18.1594 16.2515 18.9212 16.4749 20.6985 18.1862C22.7297 20.2175 23.0649 21.1265 24.2024 21.1265H27.1934C28.0466 21.1265 28.4782 20.6999 28.2294 19.8569C27.6606 18.0847 23.8165 14.4386 23.6438 14.1948C23.202 13.6261 23.329 13.3722 23.6438 12.8644C23.6489 12.8593 27.3001 7.72021 27.6758 5.97842Z" fill="black"/>
</svg>
